# xmcd
#
# Track frame offsets: 
#        150
#        11250
#        23904
#        36435
#        45478
#        55507
#        69199
#        80111
#        89373
#        97752
#        111217
#        120151
#
# Disc length: 1733 seconds
#
# Revision: 1
# Processed by: cddbd v1.5.2PL0 Copyright (c) Steve Scherf et al.
# Submitted via: ExactAudioCopy v1.0b1
#
DISCID=8306c30c
DTITLE=Johnny Cash - Hymns From The Heart
DYEAR=1962
DGENRE=Country
TTITLE0=He'll Understand And Say Well Done
TTITLE1=God Must Have My Fortune Laid Away
TTITLE2=When I've Learned Enough To Die
TTITLE3=I Got Shoes
TTITLE4=Let The Lower Lights Be Burning
TTITLE5=If We Never Meet Again
TTITLE6=When I Take My Vacation In Heaven
TTITLE7=When The Savior Reached Down For Me
TTITLE8=Taller Than Trees
TTITLE9=I Won't Have To Cross Jordan Alone
TTITLE10=My God Is Real
TTITLE11=These Hands
EXTD=
EXTT0=
EXTT1=
EXTT2=
EXTT3=
EXTT4=
EXTT5=
EXTT6=
EXTT7=
EXTT8=
EXTT9=
EXTT10=
EXTT11=
PLAYORDER=
